<?xml version="1.0" encoding="UTF-8" standalone="no"?>
<svg id="svg" version="1.1" viewBox="-70 -70 440 440" width="440" height="440" xmlns="http://www.w3.org/2000/svg"><defs><clipPath id="clip-1"><rect x="0" y="0" transform="scale(0.14648,0.14648)" width="2048" height="2048" fill="none"/></clipPath></defs><g clip-path="url(#clip-1)" fill="none" fill-rule="nonzero" stroke="none" stroke-width="1" stroke-linecap="butt" stroke-linejoin="miter" stroke-miterlimit="10" stroke-dasharray="" stroke-dashoffset="0" font-family="none" font-weight="none" font-size="none" text-anchor="none" style="mix-blend-mode: normal"><path d="M151.7373,6.22308c2.1416,-0.15174 4.54395,0.53584 6.03516,2.1339c2.60742,2.79223 2.35254,6.34654 2.32764,9.89864l-0.04834,5.64097c6.41309,-1.6355 21.76758,2.58984 28.22314,4.56372c14.56641,4.454 29.2749,12.60659 41.17676,22.08589c1.57617,1.25625 3.00146,2.72739 4.48975,4.08706c4.8457,4.42632 9.50391,8.84692 13.70654,13.90327c1.85156,2.227 3.48047,4.78213 5.18262,7.13394c2.84326,3.93193 5.78467,7.98003 8.06396,12.27012c1.37695,2.59072 2.53857,5.24502 3.76611,7.90356c2.05811,4.4543 4.02393,8.92222 5.65283,13.5561c0.74854,2.13032 1.21875,4.38545 1.77393,6.57451c1.46777,5.7939 2.83154,11.57622 3.57568,17.51133c0.17432,1.38911 0.44971,2.85967 0.39404,4.25991c-0.0249,0.63193 -0.23291,1.25361 -0.41602,1.85464c1.73438,0.00439 3.48633,0.02124 5.25146,-0.01758c2.84473,-0.13169 7.3125,-0.51123 9.63574,1.55581c3.41455,3.04028 3.44971,13.7874 0.52881,17.13604c-3.13037,3.58594 -10.63184,2.08447 -14.97217,2.39795l-0.27246,0.02051c0.37793,1.76221 -0.04102,2.96045 -0.18457,4.72998c-0.72949,8.96191 -3.1626,18.38379 -6.10693,26.87842c-9.22852,26.00537 -26.58105,48.35156 -49.49121,63.73389c-5.90771,3.9375 -11.42578,6.76318 -17.79346,9.84961c-3.35889,1.65967 -6.81006,3.12744 -10.3374,4.396c-4.78125,1.67285 -9.81738,2.82715 -14.73926,3.98584c-3.82471,0.90088 -7.66406,1.95117 -11.60156,2.26318c-1.66846,0.1333 -3.89502,0.10693 -5.48145,-0.44238c0.00732,2.45947 -0.20654,5.27051 -0.18896,7.63477c0.07324,9.22852 -3.45117,9.71777 -11.47998,9.89941c-11.11699,0.51709 -9.96108,-8.93848 -9.62285,-17.07129c-0.55488,-0.69287 -4.21597,0.30615 -5.24282,0.06592c-2.66675,-0.62549 -5.44556,-0.89795 -8.10996,-1.39746c-30.36636,-5.96924 -57.53159,-22.76367 -76.44375,-47.26025c-1.41255,-1.8208 -3.41279,-4.18066 -4.66494,-6.03809c-10.08179,-15.07324 -16.98413,-32.04346 -20.28516,-49.87354c-0.47139,-2.68652 -1.29888,-8.75684 -0.79219,-11.35986c-4.40552,-0.11572 -11.56109,0.82617 -14.97249,-1.99658c-1.85105,-1.59814 -2.07494,-4.05908 -2.23975,-6.26953c-1.12406,-15.07266 5.45786,-12.8146 17.28343,-12.79878c-0.13359,-0.39434 -0.41616,-1.32319 -0.38042,-1.70918c0.43872,-4.73569 0.87788,-9.60439 1.84204,-14.25161c5.85088,-28.00737 21.01025,-53.20942 43.00986,-71.50327c2.7457,-2.31064 7.3043,-6.03486 10.25581,-7.99014c6.66211,-4.40273 13.68765,-8.22905 21.00029,-11.43721c8.21851,-3.59736 31.02891,-10.69541 39.69272,-8.92588c-0.02314,-1.89258 -0.03647,-3.7853 -0.04014,-5.67803c-0.00967,-3.68424 -0.22998,-6.97707 2.49565,-9.90885c2.32822,-2.50436 7.08721,-1.91801 10.54424,-1.99537zM160.84863,261.8042c-0.00586,3.07471 0.03955,6.15088 0.13477,9.22559c2.18994,-0.11279 6.31641,-0.63281 8.48145,-1.08984c30.46729,-4.78564 58.98486,-22.48975 77.40381,-47.26758c13.51172,-18.17725 21.25488,-38.64697 23.49316,-61.19971l-9.43652,-0.04248c-0.23145,4.46338 -1.31836,10.22461 -2.36426,14.59277c-5.24561,21.86865 -16.91602,41.66602 -33.51123,56.84326c-13.73877,12.5918 -30.38965,21.57568 -48.45703,26.14453c-4.35205,1.11475 -11.25293,2.44482 -15.74414,2.79346zM154.2041,12.93872c-0.12012,-0.62558 0.04102,-0.44988 -0.32812,-0.74007c-2.7041,-0.21447 -6.47607,0.00083 -9.28315,-0.03349l0.01421,54.7927l9.58828,0.00776l0.05273,-1.83281c-0.15234,-1.39043 -0.08936,-5.38535 -0.08203,-6.92666c0.02783,-4.04575 0.03223,-8.09165 0.01172,-12.13755l0.02051,-20.13237c-0.01465,-3.89062 -0.20654,-9.19951 0.00586,-12.99751zM149.55469,178.15137c4.68457,-5.84033 13.17773,-18.12012 14.99854,-25.35059c0.43213,-1.72119 0.54785,-3.50684 0.33984,-5.27051c-0.44238,-3.88989 -2.84033,-8.05312 -5.89893,-10.4606c-2.80371,-2.18906 -6.27686,-3.3438 -9.83203,-3.26895c-4.77363,0.29399 -7.89902,1.6355 -11.2229,5.16284c-2.61372,2.77412 -4.40054,7.34385 -4.04092,11.1082c0.77256,8.08887 10.25479,21.76025 15.37075,28.07227zM137.8437,271.03564c0.09243,-3.08057 0.13843,-6.16406 0.13799,-9.24609c-30.09067,-3.23145 -57.6334,-18.38086 -76.47686,-42.06299c-13.26606,-16.78711 -21.45322,-37.01953 -23.59512,-58.30957l-9.35112,0.0791c0.60835,7.72998 2.07231,15.36768 4.36538,22.77539c6.60454,22.53516 19.62451,42.66211 37.47158,57.92432c15.6293,13.51465 34.46235,22.79736 54.70078,26.96191c3.09331,0.646 9.58872,1.80762 12.74736,1.87793zM232.65381,154.70508l35.95898,-0.0249c5.97949,0.00293 12.44385,-0.13477 18.37061,0.01172l-0.02783,-9.57891l-34.07227,0.01655c-6.34424,0.00234 -14.08008,0.20962 -20.3291,-0.02197c0.0293,3.12437 -0.00732,6.49497 0.09961,9.59751zM11.8839,145.12104c-0.00067,3.05376 -0.08169,6.55327 0.08927,9.56938c18.02669,-0.04248 36.46878,-0.20215 54.46336,-0.00293c0.01333,-3.2168 0.00161,-6.43213 -0.0353,-9.64746c-1.41899,0.07983 -2.7334,0.10356 -4.14976,0.11982c-0.79072,0.14209 -1.32451,0.74385 -2.07041,1.16206c-0.56309,0.00527 -0.31846,0.08555 -0.76597,-0.22983c-0.09331,-0.34175 -0.1812,-0.60396 -0.29517,-0.93691c-15.72935,-0.15234 -31.53003,0.1522 -47.23603,-0.03413zM270.34863,138.12715c-3.05713,-32.11523 -18.76611,-61.69453 -43.66113,-82.21245c-15.78955,-13.08223 -34.66113,-21.90967 -54.82324,-25.64341c-3.76318,-0.7355 -7.31836,-0.83232 -10.83691,-1.41606l-0.00732,9.34541c4.26855,0.31655 9.43066,1.2772 13.60693,2.2106c23.36719,5.23564 44.40674,17.91035 59.95752,36.12114c14.9209,17.35459 24.16406,38.86553 26.48291,61.63462c3.03223,-0.01509 6.26221,-0.08203 9.28125,-0.03984zM30.35889,138.15513c2.4479,0.01245 5.19873,-0.03457 7.62187,0.06562c0.45073,-4.32378 0.94775,-8.24048 1.85332,-12.50889c5.46636,-25.18579 19.46323,-47.71099 39.62344,-63.76641c13.60737,-10.98311 29.65679,-18.53232 46.79414,-22.01074c3.26558,-0.68218 8.25571,-1.5939 11.61021,-1.74683c0.00044,-1.44214 0.09316,-8.17925 -0.1481,-9.20479c-0.4645,-0.19834 -0.37778,-0.12378 -0.95244,-0.0668c-31.72134,3.23921 -60.87231,18.89854 -81.08687,43.5583c-13.0311,15.72642 -21.83394,34.51772 -25.57588,54.59575c-0.34409,1.86548 -1.50967,9.05068 -1.48594,10.86108c0.26909,0.27363 0.74985,0.21636 1.21523,0.22324c0.17695,0.00176 0.35405,0.0019 0.53101,0.00044z" fill="#1a1c19"/><path d="M196.90576,109.88848l0.16699,0.09097c3.05273,1.63271 6.81152,2.9833 10.06641,4.7417c11.31152,6.11265 19.99805,13.45854 28.01074,23.42666c-6.2915,-0.17109 -9.65918,0.04116 -15.78076,1.9875c2.47705,1.61162 6.78809,6.13315 6.9873,9.10884c0.26514,3.93896 0.26807,8.21191 0.39404,12.17139l6.9624,-0.03516c2.52979,9.14355 3.50684,14.79932 3.46436,24.14209c-5.36719,-4.67871 -10.50439,-8.08594 -17.45215,-10.11914c-0.25781,4.56445 -0.49365,8.55615 -1.45898,13.02686c-2.34961,10.88525 -7.68896,21.39404 -14.91064,29.85352c-1.52344,1.78564 -3.08643,3.76904 -4.76953,5.41846c-0.70166,-8.74512 -1.62451,-12.98877 -6.8042,-20.33496c-4.64062,12.78516 -14.11523,24.72803 -25.06201,32.70264c-1.88818,1.37549 -4.21436,3.06152 -6.26953,4.12061c2.20313,-10.00342 3.68848,-18.03516 1.58496,-28.38135c-2.2251,2.61914 -4.20557,4.83984 -6.99609,6.91553c2.69531,-12.07178 1.24512,-18.16992 -9.42861,-25.06201c5.47939,-0.21387 10.93008,-0.21973 16.38076,0.53467c-10.96436,-5.3335 -22.06831,-6.93604 -34.11445,-4.67432c-1.50923,0.28271 -3.56821,0.64746 -5.01343,1.07666c1.47539,-1.55713 12.40693,-13.5 13.4981,-14.01416c1.36289,-0.64453 3.46465,-0.54492 4.96772,-0.63135c2.03232,2.90771 5.75288,8.13867 8.13179,10.88818c2.71729,-3.48633 5.28662,-7.00049 7.97021,-10.49414c7.65381,1.42383 14.55029,3.5127 21.48633,7.05322c0.81738,0.41748 1.66113,0.8335 2.49902,1.20264c-0.34424,-3.22705 -2.54297,-13.14844 -3.85693,-16.06934c7.26416,0.37646 13.23047,1.48828 19.95557,4.43555c1.9834,0.86719 3.94189,1.96582 5.81836,2.7876c-3.23877,-13.24951 -7.91016,-24.47021 -19.10889,-33.02432c2.01709,-2.42988 5.03613,-6.58096 6.00879,-9.55239c-0.05859,-0.66182 0.64014,-2.42681 0.9375,-3.08247c-0.55957,0.78926 -1.15723,2.002 -2.15039,2.1252c-4.37695,3.99346 -9.05273,8.1353 -14.13721,11.23594c10.40625,5.46797 15.77051,12.23701 20.17236,22.92891c-9.55518,-3.28711 -15.41016,-3.42334 -25.42383,-3.00586c1.77686,3.92871 3.28271,7.97314 4.50586,12.1084c-4.22461,-1.68457 -8.91357,-3.32666 -13.45459,-3.89209l0.06299,-0.12012c0.81299,-1.5293 1.98193,-3.12451 2.88721,-4.6333c5.354,-8.92383 8.97217,-16.2832 4.64209,-26.61255l18.79248,-19.8375c2.20898,-2.30552 4.40479,-4.62437 6.58594,-6.95625c0.95801,-1.0229 2.41553,-2.47324 3.25195,-3.55093z" fill="#f7311c"/><path d="M193.18799,124.38413c0.43066,-0.0542 0.46436,-0.11147 0.84375,-0.00425c-0.36328,1.04561 -0.53027,1.52563 -1.04443,2.49844c-1.64941,0.45044 -1.83398,3.12715 -3.0498,4.26914c-0.64893,-0.41528 -0.44531,0.15396 -0.79687,-0.6019c1.42676,-4.09043 -0.19043,-2.87329 4.04736,-6.16143z" fill="#59100e"/><path d="M189.9375,131.14746c1.21582,-1.14199 1.40039,-3.8187 3.0498,-4.26914c-0.55518,1.36128 -2.10937,5.20737 -2.75391,6.30278c-0.05859,-0.66182 0.64014,-2.42681 0.9375,-3.08247c-0.55957,0.78926 -1.15723,2.002 -2.15039,2.1252z" fill="#310000"/><path d="M193.18799,124.38413c0.98145,-0.86514 1.28027,-1.57588 1.74756,-2.76211c0.1875,-0.47681 0.59033,-1.60737 1.05469,-1.77539c-0.25488,1.471 -1.35059,3.10928 -1.9585,4.53325c-0.37939,-0.10723 -0.41309,-0.04995 -0.84375,0.00425z" fill="#920606"/><path d="M218.49463,128.91226c0.49219,0.05859 0.45703,0.05845 0.86426,0.346c1.09277,1.73833 -1.39893,3.02139 -1.70801,4.8394l-0.23584,-0.23013c0.01318,-2.12651 1.69922,-2.5998 1.73438,-3.93955c-0.19336,-0.23115 -0.40576,-0.41865 -0.63867,-0.60864z" fill="#59100e"/><path d="M177.9375,157.66553l0.2417,-0.00586c0.4292,0.42334 1.49268,1.33154 1.59814,1.80176l-0.23437,0.08203c-0.45703,-0.37939 -1.5249,-1.31543 -1.60547,-1.87793z" fill="#59100e"/><path d="M215.65137,174.43359l0.26807,-0.06885c0.44385,0.5625 0.90967,1.78271 1.05322,2.48145c-0.51855,-0.32959 -1.16455,-1.81348 -1.32129,-2.4126z" fill="#e32b1c"/><path d="M189.6416,181.12939c0.73828,0.08496 1.51611,0.84082 1.8501,1.48242c-0.77197,-0.04834 -1.43994,-0.87598 -1.8501,-1.48242z" fill="#59100e"/><path d="M175.1748,200.67041c0.60938,0.18311 1.021,0.56396 1.52197,0.95801l-0.11133,0.2417c-0.46143,0.05127 -1.24805,-0.78223 -1.41064,-1.19971z" fill="#920606"/><path d="M194.57813,200.08154c0.81299,0.06299 1.125,0.3999 1.52344,1.05615c-0.57422,-0.12744 -1.15576,-0.60059 -1.52344,-1.05615z" fill="#920606"/><path d="M184.41797,69.80493l0.17285,0.08188c0.93896,1.46133 1.81494,3.9605 2.37891,5.65151c2.55908,7.66055 3.84668,15.48003 3.68848,23.55674c-0.01904,1.01909 -0.03955,4.91528 -0.49512,5.52891c-1.02246,1.37783 -3.45703,3.68013 -4.69043,5.00083c-4.69922,5.09341 -9.45264,10.13599 -14.26172,15.127c-2.66309,2.81851 -5.55615,6.02534 -8.29541,8.73486c-2.43896,-1.80454 -4.40771,-3.01685 -7.3418,-3.92373c-5.32324,-1.65732 -11.09282,-1.07344 -15.97661,1.61689c-4.65278,2.5144 -8.61914,7.01763 -10.05176,12.14385c-2.44819,8.76079 0.92285,15.09185 4.99702,22.47759c-1.67007,1.80908 -5.36118,6.09229 -7.17686,7.34033c-0.80186,0.55225 -6.42686,2.29102 -7.73467,2.729c-3.09521,1.05908 -6.15894,2.20898 -9.18721,3.44531c-3.67573,1.48389 -7.37109,3.24902 -11.03042,4.8208c-2.67744,1.1499 -8.10029,4.38281 -10.73086,4.63184c-5.51323,0.52295 -12.75425,0.39551 -18.09097,-1.396c-0.86953,-0.2915 -1.6582,-0.89795 -2.36191,-1.4458c-2.59805,-2.23975 -6.55386,-6.08203 -8.46782,-8.87988c-0.40928,-0.59766 -0.85488,-1.75342 -1.12632,-2.44482c4.9355,-4.11621 35.12739,-22.80029 36.35376,-24.9624c0.83262,-1.46777 1.22358,-3.3189 1.73203,-4.93081c1.23003,-3.89956 2.49272,-7.76382 3.8688,-11.6146c0.49482,-1.38457 0.91172,-3.03281 1.63726,-4.30356c0.35156,-0.61538 0.91948,-1.12456 1.47466,-1.55479c2.23813,-1.73423 4.83223,-3.20508 7.1981,-4.78154c3.80728,-2.57798 7.66406,-5.08198 11.56831,-7.5104c2.51206,-1.56167 4.92935,-3.15088 7.65732,-4.32056c6.48545,-2.78086 13.35146,-4.63301 20.12051,-6.56836c-1.22754,2.48555 -2.92383,4.98545 -4.16089,7.53779c1.77905,-1.94824 3.7522,-3.72305 5.60522,-5.6083c6.09082,-6.22515 12.58008,-12.21021 18.5332,-18.56221c4.99951,-5.33247 9.78809,-11.7917 14.19434,-17.61738z" fill="#f7311c"/><path d="M104.66968,151.5c6.25254,-8.36748 6.35537,-9.20522 16.41548,-13.34692c0.78047,-0.32124 4.79692,-1.92334 5.51118,-2.28691c-1.3856,2.38975 -6.76069,11.24077 -8.64141,12.92388c-5.2771,1.48389 -6.58228,0.05273 -12.47534,3.35889c-0.62432,-0.30176 -0.51079,-0.13623 -0.80991,-0.64893z" fill="#1a1c19"/><path d="M104.66968,151.5c0.29912,0.5127 0.1856,0.34717 0.80991,0.64893c-1.16206,0.70752 -1.47275,0.89502 -2.57622,1.75488c0.49995,-0.83936 1.16162,-1.63184 1.76631,-2.40381z" fill="#59100e"/><path d="M260.92529,161.43018l9.43652,0.04248c-2.23828,22.55273 -9.98145,43.02246 -23.49316,61.19971c-18.41895,24.77783 -46.93652,42.48193 -77.40381,47.26758c-2.16504,0.45703 -6.2915,0.97705 -8.48145,1.08984c-0.09521,-3.07471 -0.14062,-6.15088 -0.13477,-9.22559c4.49121,-0.34863 11.39209,-1.67871 15.74414,-2.79346c18.06738,-4.56885 34.71826,-13.55273 48.45703,-26.14453c16.59521,-15.17725 28.26563,-34.97461 33.51123,-56.84326c1.0459,-4.36816 2.13281,-10.12939 2.36426,-14.59277z" fill-opacity="0.98824" fill="#6dfa07"/><path d="M234.71338,228.12158c0.44971,0.21387 1.87354,1.07813 2.13281,1.47217c-0.67969,-0.22412 -1.54395,-0.57568 -2.23389,-0.58447c-0.55957,0.25488 -0.40869,0.22119 -0.81885,0.7998c-0.66357,0.45996 -0.98877,1.01514 -1.64648,1.36523c0.0835,-1.02246 1.92334,-1.66992 2.56641,-3.05273z" fill="#3db601"/><path d="M241.06787,221.01855l0.12305,0.15088c0.03955,0.59326 -0.69141,1.91895 -1.00195,2.43896l-0.25049,-0.29883c0.06445,-0.58447 0.80713,-1.75635 1.12939,-2.29102z" fill="#0f7101"/><path d="M239.71729,224.16504l0.25928,0.18018c0.11572,0.29883 0.61377,2.39355 0.58447,2.74658l-0.3252,-0.26514c-0.32959,-0.79102 -0.67676,-1.80176 -0.51855,-2.66162z" fill="#0f7101"/><path d="M28.55859,161.49609l9.35112,-0.0791c2.14189,21.29004 10.32905,41.52246 23.59512,58.30957c18.84346,23.68213 46.38618,38.83154 76.47686,42.06299c0.00044,3.08203 -0.04556,6.16553 -0.13799,9.24609c-3.15864,-0.07031 -9.65405,-1.23193 -12.74736,-1.87793c-20.23843,-4.16455 -39.07148,-13.44727 -54.70078,-26.96191c-17.84707,-15.26221 -30.86704,-35.38916 -37.47158,-57.92432c-2.29307,-7.40771 -3.75703,-15.04541 -4.36538,-22.77539z" fill-opacity="0.98824" fill="#6dfa07"/><path d="M41.50107,194.45654c0.36958,0.2373 0.25005,0.07617 0.3687,0.50098c-0.26909,0.82031 -0.76567,1.29346 -1.5208,1.68457l-0.23936,-0.09082c0.81885,-0.63867 1.03462,-1.1748 1.39146,-2.09473z" fill="#0f7101"/><path d="M136.76133,28.91631c0.57466,-0.05698 0.48794,-0.13154 0.95244,0.0668c0.24126,1.02554 0.14854,7.76265 0.1481,9.20479c-3.35449,0.15293 -8.34463,1.06465 -11.61021,1.74683c-17.13735,3.47842 -33.18677,11.02764 -46.79414,22.01074c-20.16021,16.05542 -34.15708,38.58062 -39.62344,63.76641c-0.90557,4.26841 -1.40259,8.18511 -1.85332,12.50889c-2.42314,-0.1002 -5.17397,-0.05317 -7.62187,-0.06562c-0.17695,0.00146 -0.35405,0.00132 -0.53101,-0.00044c-0.46538,-0.00688 -0.94614,0.05039 -1.21523,-0.22324c-0.02373,-1.8104 1.14185,-8.99561 1.48594,-10.86108c3.74194,-20.07803 12.54478,-38.86934 25.57588,-54.59575c20.21455,-24.65977 49.36553,-40.31909 81.08687,-43.5583z" fill-opacity="0.98824" fill="#6dfa07"/><path d="M161.02734,28.85522c3.51855,0.58374 7.07373,0.68057 10.83691,1.41606c20.16211,3.73374 39.03369,12.56118 54.82324,25.64341c24.89502,20.51792 40.604,50.09722 43.66113,82.21245c-3.01904,-0.04219 -6.24902,0.02476 -9.28125,0.03984c-2.31885,-22.76909 -11.56201,-44.28003 -26.48291,-61.63462c-15.55078,-18.21079 -36.59033,-30.8855 -59.95752,-36.12114c-4.17627,-0.9334 -9.33838,-1.89404 -13.60693,-2.2106z" fill-opacity="0.98824" fill="#6dfa07"/><path d="M149.16211,133.80073c3.55518,-0.07485 7.02832,1.07988 9.83203,3.26895c3.05859,2.40747 5.45654,6.5707 5.89893,10.4606c0.20801,1.76367 0.09229,3.54932 -0.33984,5.27051c-1.8208,7.23047 -10.31396,19.51025 -14.99854,25.35059l-0.28564,-0.00732c-5.11597,-6.31201 -14.59819,-19.9834 -15.37075,-28.07227c-0.35962,-3.76436 1.4272,-8.33408 4.04092,-11.1082c3.32388,-3.52734 6.44927,-4.86885 11.2229,-5.16284z" fill-opacity="0.98824" fill="#6dfa07"/><path d="M147.99609,142.81406c3.62695,-0.79731 7.20996,1.50996 7.98633,5.14248c0.7749,3.63281 -1.55273,7.20117 -5.18994,7.95557c-3.60645,0.74854 -7.13965,-1.55713 -7.90869,-5.15918c-0.76919,-3.60059 1.5145,-7.14814 5.1123,-7.93887z" fill="#1a1c19"/><path d="M45.99492,161.45508l4.47744,-0.01611c1.9979,19.33887 10.8769,39.29297 23.67905,53.83154c2.85015,3.2373 5.83271,6.07031 8.9748,9.00879l26.971,-28.89111c2.46738,-2.59424 3.12642,-2.83594 6.74531,-2.92383c-0.01494,0.75586 -0.01934,1.81055 -0.47886,2.39355c-1.72134,2.18408 -3.7459,4.44141 -5.62397,6.47754c-3.37148,3.66357 -6.77607,7.29639 -10.21304,10.89844c-4.42559,4.67285 -9.57817,10.61865 -14.07539,14.99414c0.55518,0.34424 1.17905,0.87598 1.69629,1.29639c2.51265,2.0376 5.13984,3.8042 7.86372,5.54736c12.23394,7.71973 27.47534,13.65967 41.96646,15.05273l-0.03955,4.62012c-1.06157,-0.24902 -3.15718,-0.48633 -4.327,-0.67676c-2.5314,-0.4043 -5.04727,-0.90088 -7.54263,-1.48975c-14.5749,-3.36328 -28.23721,-9.87451 -40.02788,-19.07959c-2.6748,-2.08447 -5.70278,-4.53662 -8.16299,-6.86426c-17.81147,-17.00244 -29.09414,-39.71338 -31.88276,-64.1792z" fill="#6dfa07"/><path d="M161.04932,46.11138c3.04834,0.1103 8.59131,1.22549 11.54736,1.904c16.85303,3.73198 32.4873,11.66836 45.44531,23.06997c16.64209,14.64785 28.2085,34.19883 33.03076,55.83853c0.73096,3.37148 1.60986,7.91763 1.8208,11.35884c-1.47656,-0.02812 -3,-0.02095 -4.47949,-0.03076c-1.47656,-13.98633 -5.96191,-27.48765 -13.1499,-39.57642c-3.93604,-6.61992 -8.41406,-12.22383 -13.56885,-17.9001c-0.81299,0.95068 -1.86768,1.94795 -2.74805,2.85864c-5.53418,5.72227 -10.94092,11.57358 -16.4502,17.31738c-2.5459,2.65547 -5.40088,6.31875 -8.34961,8.44336c-1.59082,0.02842 -2.9209,0.01465 -4.50879,-0.14458c1.17627,-2.99531 6.55957,-8.05708 8.95898,-10.65557c6.56396,-7.10068 13.19971,-14.13413 19.90723,-21.09917c-2.70117,-2.42021 -5.01855,-4.53105 -7.91748,-6.77051c-14.34082,-11.14849 -31.4751,-18.13301 -49.52344,-20.18774c-0.06738,-1.55127 -0.04687,-2.87915 -0.01465,-4.42588z" fill="#6dfa07"/><path d="M248.45068,161.48877c1.51172,-0.0498 3.07031,-0.0498 4.58643,-0.07031c-0.32812,2.09326 -0.58594,4.17041 -0.95508,6.26367c-2.6543,15.01904 -8.33789,29.18701 -17.09766,41.70117c-13.46631,19.37988 -33.08496,33.6416 -55.67285,40.47363c-5.09912,1.53662 -9.4541,2.38184 -14.63525,3.2915c-1.23486,0.17432 -2.47266,0.33398 -3.71191,0.47607c-0.04248,-1.52197 -0.07031,-3.04395 -0.08203,-4.56445c2.56787,-0.11133 7.18652,-1.00635 9.69873,-1.57031c13.81934,-3.03369 26.83887,-8.96484 38.19727,-17.40088c23.1123,-17.46973 35.70703,-40.07666 39.67236,-68.6001z" fill="#6dfa07"/><path d="M137.20005,46.20937l0.40986,-0.02681c0.36621,0.39404 0.31436,3.54185 0.35874,4.34854c-17.23901,1.68296 -35.32324,9.24639 -49.03418,19.74858c-16.22051,12.50464 -28.25142,29.64961 -34.4937,49.15605c-2.02207,6.45571 -3.1084,12.13491 -3.99067,18.79497l-3.54976,0.02549c-0.46816,-0.00557 -0.58901,0.07178 -0.88242,-0.25635c0.03779,-2.60039 1.05249,-7.05703 1.55742,-9.67104c8.26406,-42.79189 46.02129,-77.96924 89.62471,-82.11943z" fill="#6dfa07"/><path d="M144.59282,12.16516c2.80708,0.03432 6.57905,-0.18098 9.28315,0.03349c0.36914,0.29019 0.20801,0.11449 0.32813,0.74007c-0.2124,3.798 -0.02051,9.10689 -0.00586,12.99751l-0.02051,20.13237c0.02051,4.0459 0.01611,8.0918 -0.01172,12.13755c-0.00732,1.54131 -0.07031,5.53623 0.08203,6.92666l-0.05273,1.83281l-9.58828,-0.00776z" fill-opacity="0.98824" fill="#6dfa07"/><path d="M144.61113,233.05664l9.49482,-0.04102c-0.03662,2.69971 0.1084,5.44482 0.1084,8.15771l-0.04395,26.47705c0.01172,6.5376 0.14063,13.57764 -0.03662,20.06543l-9.44839,0.01904z" fill="#6dfa07"/><path d="M151.11768,264.84814l0.2373,0.03809l0.0542,0.20654c-0.40576,0.32959 -2.33936,1.09277 -2.93994,1.34619l-0.09229,-0.01025l-0.10547,-0.15674c0.22852,-0.33398 2.30859,-1.17187 2.84619,-1.42383z" fill="#3db601"/><path d="M232.5542,145.10757c6.24902,0.23159 13.98486,0.02432 20.3291,0.02197l34.07227,-0.01655l0.02783,9.57891c-5.92676,-0.14648 -12.39111,-0.00879 -18.37061,-0.01172l-35.95898,0.0249c-0.10693,-3.10254 -0.07031,-6.47314 -0.09961,-9.59751z" fill-opacity="0.98824" fill="#6dfa07"/><path d="M62.25146,145.15986c1.41636,-0.01626 2.73076,-0.03999 4.14976,-0.11982c0.03691,3.21533 0.04863,6.43066 0.0353,9.64746c-17.99458,-0.19922 -36.43667,-0.03955 -54.46336,0.00293c-0.17096,-3.01611 -0.08994,-6.51562 -0.08927,-9.56938c15.706,0.18633 31.50668,-0.11821 47.23603,0.03413c0.11396,0.33296 0.20186,0.59517 0.29517,0.93691c0.44751,0.31538 0.20288,0.23511 0.76597,0.22983c0.7459,-0.41821 1.27969,-1.01997 2.07041,-1.16206z" fill-opacity="0.98824" fill="#6dfa07"/><path d="M148.39746,74.22085c3.15967,3.06709 8.22949,14.67861 9.24316,19.27529c-1.02832,1.75811 -2.71729,4.72368 -4.29492,5.9666c-0.85254,0.67251 -10.91191,2.99663 -12.71001,3.49644c-2.43032,0.70693 -4.86724,1.39146 -7.31016,2.05371c2.82495,-5.70176 5.93892,-11.68389 8.61973,-17.39824l3.7415,-8.03745c0.76948,-1.64707 1.74976,-3.83232 2.71069,-5.35635z" fill="#f7311c"/><path d="M120.30161,180.5083l0.07983,0.07764l-0.05464,0.2666c-3.18354,3.47607 -6.5376,6.77197 -9.54316,10.41064c-0.58169,0.70313 -1.64048,2.04199 -2.42593,2.45947c-1.86943,0.99316 -4.05776,1.45752 -6.03647,2.20166c-2.00757,0.74268 -3.86543,1.63184 -5.77705,2.53418c-2.87197,-0.56104 -8.40498,-2.16064 -10.88057,-3.50244c-1.32729,-0.74268 -2.46812,-1.5791 -3.6416,-2.53857c1.2939,0.09082 9.5417,0.14355 10.35439,-0.12305c1.74551,-0.57129 6.63501,-3.2666 8.72812,-4.21436c6.1377,-2.77881 12.75381,-5.6001 19.19707,-7.57178z" fill="#f7311c"/><path d="M154.2041,12.93872l0.16846,-0.50725c0.3999,1.09014 0.09229,22.25662 0.09229,24.98518l0.01611,20.44629c-0.01904,2.37979 0.06445,4.66816 -0.04395,7.04912l-0.18896,0.22075c-0.15234,-1.39043 -0.08936,-5.38535 -0.08203,-6.92666c0.02783,-4.04575 0.03223,-8.09165 0.01172,-12.13755l0.02051,-20.13237c-0.01465,-3.89062 -0.20654,-9.19951 0.00586,-12.99751z" fill="#151e19"/><path d="M59.11992,145.15518l3.13154,0.00469c-0.79072,0.14209 -1.32451,0.74385 -2.07041,1.16206c-0.56309,0.00527 -0.31846,0.08555 -0.76597,-0.22983c-0.09331,-0.34175 -0.1812,-0.60396 -0.29517,-0.93691z" fill="#89f117"/></g></svg>